<svg height="491pt" viewBox="-69 0 491 491.312" width="491pt" xmlns="http://www.w3.org/2000/svg"><path d="m335.90625 451.3125h.25v-168c0-5.898438-3.242188-11-8-13.777344v-149.277344c4.917969-5.625 8-12.898437 8-20.945312 0-17.648438-14.351562-32-32-32s-32 14.351562-32 32c0 8.039062 3.078125 15.3125 8 20.945312v27.054688h-24c0-23.273438-10.105469-44.679688-26.832031-59.570312l5.863281-8.0625c2.214844.65625 4.496094 1.007812 6.769531 1.007812 7.429688 0 14.765625-3.429688 19.453125-9.878906 7.777344-10.703125 5.394532-25.746094-5.308594-33.519532-10.707031-7.769531-25.746093-5.402343-33.53125 5.3125-6.117187 8.421876-5.863281 19.476563-.292968 27.621094l-5.875 8.089844c-3.046875-1.769531-6.183594-3.433594-9.503906-4.816406-4.039063-1.679688-6.742188-6.0625-6.742188-10.910156 0-1.3125.207031-2.609376.625-3.851563l8.527344-25.582031-33.152344-33.152344-33.152344 33.152344 8.527344 25.582031c.417969 1.242187.625 2.546875.625 3.851563 0 4.847656-2.703125 9.230468-6.734375 10.910156-3.320313 1.382812-6.457031 3.039062-9.507813 4.816406l-5.871093-8.089844c5.570312-8.144531 5.824219-19.199218-.296875-27.621094-7.78125-10.699218-22.820313-13.082031-33.527344-5.3125-10.703125 7.773438-13.078125 22.816407-5.3125 33.519532 4.691406 6.457031 12.019531 9.878906 19.449219 9.878906 2.273437 0 4.550781-.351562 6.777343-1.007812l5.863282 8.0625c-16.734375 14.890624-26.839844 36.296874-26.839844 59.570312h-24v-27.054688c4.917969-5.625 8-12.898437 8-20.945312 0-17.648438-14.351562-32-32-32s-32 14.351562-32 32c0 8.039062 3.078125 15.3125 8 20.945312v149.285157c-4.761719 2.777343-8 7.882812-8 13.777343v168h.246094c-9.796875 7.289063-16.246094 18.863282-16.246094 31.992188v8h352v-8c0-13.128906-6.449219-24.703125-16.25-32zm-100.390625-399.3125c1.558594-2.152344 4.007813-3.296875 6.488281-3.296875 1.632813 0 3.273438.496094 4.6875 1.527344 3.570313 2.59375 4.359375 7.609375 1.769532 11.167969-2.59375 3.578124-7.625 4.363281-11.175782 1.777343-3.570312-2.589843-4.359375-7.609375-1.769531-11.175781zm-131.664063 9.40625c-2.589843-3.566406-1.800781-8.582031 1.769532-11.175781 1.414062-1.03125 3.0625-1.519531 4.6875-1.519531 2.480468 0 4.917968 1.144531 6.488281 3.296874 2.589844 3.566407 1.800781 8.585938-1.769531 11.175782-3.566406 2.570312-8.582032 1.785156-11.175782-1.777344zm208.304688 381.90625h-24v-128h32v128.808594c-2.585938-.527344-5.265625-.808594-8-.808594zm-264-312c2.777344 0 5.421875-.464844 8-1.136719v137.136719h-16v-137.136719c2.574219.671875 5.222656 1.136719 8 1.136719zm16 152v16h-32v-16zm183.984375-88c-.394531 46.253906-7.792969 91.953125-21.871094 136h-100.226562c-14.078125-44.046875-21.480469-89.746094-21.871094-136h39.984375v-40c0-17.648438 14.351562-32 32-32s32 14.351562 32 32v40zm.015625 152c10.433594 0 19.328125 6.6875 22.632812 16h-189.265624c3.304687-9.3125 12.199218-16 22.632812-16zm24 32v16h-192v-16zm32-248c2.777344 0 5.421875-.464844 8-1.136719v137.136719h-16v-137.136719c2.574219.671875 5.222656 1.136719 8 1.136719zm-16 152h32v16h-32zm-208 128h192v32h-192zm224-328c8.824219 0 16 7.175781 16 16s-7.175781 16-16 16-16-7.175781-16-16 7.175781-16 16-16zm-192 80v-16c0-25.90625 15.472656-49.082031 39.40625-59.039062 10.082031-4.203126 16.59375-14.28125 16.59375-25.6875 0-3.027344-.488281-6.027344-1.449219-8.914063l-5.398437-16.199219 14.847656-14.847656 14.847656 14.847656-5.398437 16.207032c-.960938 2.878906-1.449219 5.878906-1.449219 8.90625 0 11.40625 6.511719 21.484374 16.589844 25.679687 23.9375 9.964844 39.410156 33.140625 39.410156 59.046875v16h40v106.222656c-4.761719 2.777344-8 7.878906-8 13.777344v56.207031c-6.703125-5.078125-14.960938-8.207031-24-8.207031h-5.136719c13.96875-45.367188 21.136719-92.359375 21.136719-139.898438v-12.101562h-40v-24c0-26.472656-21.527344-48-48-48s-48 21.527344-48 48v24h-40v12.101562c0 47.539063 7.167969 94.53125 21.136719 139.898438h-5.136719c-9.039062 0-17.296875 3.128906-24 8.207031v-56.207031c0-5.898438-3.242188-11-8-13.777344v-106.222656zm-64-80c8.824219 0 16 7.175781 16 16s-7.175781 16-16 16-16-7.175781-16-16 7.175781-16 16-16zm-16 232h32v128h-24c-2.734375 0-5.417969.28125-8 .808594zm-14.632812 160c3.304687-9.3125 12.199218-16 22.632812-16h272c10.433594 0 19.328125 6.6875 22.632812 16zm0 0"/></svg>